<?xml version="1.0" standalone="no"?><!DOCTYPE svg PUBLIC "-//W3C//DTD SVG 1.1//EN" "http://www.w3.org/Graphics/SVG/1.1/DTD/svg11.dtd"><svg class="icon" width="200px" height="200.00px" viewBox="0 0 1024 1024" version="1.1" xmlns="http://www.w3.org/2000/svg"><path d="M512 921.8c-55.1 0-108.5-10.8-158.8-32.1-48.6-20.6-92.2-50-129.7-87.4-37.5-37.5-66.9-81.1-87.4-129.7-21.3-50.3-32.1-103.7-32.1-158.8 0-64.6 14.7-126.3 43.6-183.6 27.5-54.6 67.8-103.1 116.5-140.4 17.6-13.5 36.4-25.6 55.9-36 17-9.1 38.3-2.7 47.4 14.4 9.1 17 2.7 38.3-14.4 47.4-16.2 8.6-31.7 18.7-46.3 29.9-40.3 30.9-73.7 71.2-96.6 116.4-23.9 47.4-36 98.6-36 152.1 0 90.3 35.2 175.2 99 239 63.8 63.8 148.7 99 239 99s175.2-35.2 239-99c63.8-63.8 99-148.7 99-239 0-53.6-12.2-104.9-36.2-152.4C791 316.3 757.5 276 717 245.1c-14.1-10.8-29.1-20.5-44.7-28.9-17-9.2-23.4-30.4-14.2-47.4s30.4-23.4 47.4-14.2c18.8 10.1 36.9 21.9 53.9 34.8 48.8 37.3 89.3 85.9 116.9 140.5 29 57.4 43.7 119.2 43.7 183.9 0 55.1-10.8 108.5-32.1 158.8-20.6 48.6-50 92.2-87.4 129.7-37.5 37.5-81.1 66.9-129.7 87.4-50.3 21.3-103.7 32.1-158.8 32.1z"  /><path d="M512 547c-19.3 0-35-15.7-35-35V108.3c0-19.3 15.7-35 35-35s35 15.7 35 35V512c0 19.3-15.7 35-35 35z"  /></svg>