<?xml version="1.0" standalone="no"?><!DOCTYPE svg PUBLIC "-//W3C//DTD SVG 1.1//EN" "http://www.w3.org/Graphics/SVG/1.1/DTD/svg11.dtd"><svg class="icon" width="200px" height="200.00px" viewBox="0 0 1024 1024" version="1.1" xmlns="http://www.w3.org/2000/svg"><path d="M164.0281125925926 829.198862796168h175.16952192189632c14.202934734696296 0 23.67155659662222-9.468623156464195 23.67155659662222-23.67155659662222s-9.468623156464195-23.67155659662222-23.67155659662222-23.67155659662222h-175.16952192189632c-14.202934734696296 0-23.67155659662222-9.468623156464195-23.67155659662222-23.67155659662222V235.04278367699754c0-14.202934734696296 9.468623156464195-23.67155659662222 23.67155659662222-23.67155659662222h707.7795531131258c14.202934734696296 0 23.67155659662222 9.468623156464195 23.67155659662222 23.67155659662222v523.1414093293037c0 14.202934734696296-9.468623156464195 23.67155659662222-23.67155659662222 23.67155659662222H474.1255086686815c-7.101466720079011 0-11.83577829831111 2.3671551418469137-16.57008987654321 7.101466720079011l-127.82640743411356 132.5607190123457c-9.468623156464195 9.468623156464195-9.468623156464195 23.67155659662222 0 33.14017975308642 4.734311578232098 4.734311578232098 9.468623156464195 7.101466720079011 16.57008987654321 7.101466720079011 7.101466720079011 0 11.83577829831111-2.3671551418469137 16.57008987654321-7.101466720079011l120.72494071403455-125.45925229226665h385.8463787387259c40.24164647316543 0 71.01467108440494-30.773024611239506 71.01467108440494-71.01466978986667V235.04278367699754c0-40.24164647316543-30.773024611239506-71.01467108440494-71.01467108440494-71.01467108440494H164.0281125925926c-40.24164647316543 0-71.01467108440494 30.773024611239506-71.01467108440494 71.01467108440494v523.1414093293037c0 37.87449133131852 33.14017975308642 71.01467108440494 71.01467108440494 71.01466978986667z"  /><path d="M379.43928098765434 478.8598202469136h-120.72494071403455c-14.202934734696296 0-23.67155659662222 9.468623156464195-23.67155659662222 23.67155659662222s9.468623156464195 23.67155659662222 23.67155659662222 23.67155789116049h120.72494071403455c14.202934734696296 0 23.67155659662222-9.468623156464195 23.67155659662222-23.67155789116049s-9.468623156464195-23.67155659662222-23.67155659662222-23.67155659662222zM578.2803595061728 526.2029347346962c14.202934734696296 0 23.67155659662222-9.468623156464195 23.67155659662222-23.67155789116049s-9.468623156464195-23.67155659662222-23.67155659662222-23.67155659662222h-120.72494071403455c-14.202934734696296 0-23.67155659662222 9.468623156464195-23.67155659662222 23.67155659662222s9.468623156464195 23.67155659662222 23.67155659662222 23.67155789116049h120.72494071403455zM774.7542828828444 526.2029347346962c14.202934734696296 0 23.67155659662222-9.468623156464195 23.67155659662222-23.67155789116049s-9.468623156464195-23.67155659662222-23.67155659662222-23.67155659662222H654.0293421688099c-14.202934734696296 0-23.67155659662222 9.468623156464195-23.67155789116049 23.67155659662222s9.468623156464195 23.67155659662222 23.67155789116049 23.67155789116049h120.72494071403455z"  /></svg>