<?xml version="1.0" standalone="no"?><!DOCTYPE svg PUBLIC "-//W3C//DTD SVG 1.1//EN" "http://www.w3.org/Graphics/SVG/1.1/DTD/svg11.dtd"><svg class="icon" width="200px" height="200.00px" viewBox="0 0 1024 1024" version="1.1" xmlns="http://www.w3.org/2000/svg"><path d="M480.102522 486.324224c0.141216 0 0.276293-0.00614 0.416486-0.00614 35.489282 1.549286 71.711252 9.724479 108.507296 24.559349 69.947072 28.204365 115.916033 71.034846 116.343775 71.440076l0.022513-0.022513c4.242627 4.016477 9.949606 6.502088 16.237823 6.502088 13.036921 0 23.64656-10.608615 23.646559-23.64656 0-6.749728-2.856048-12.834306-7.408737-17.144472l0.022513-0.022513c-2.079358-1.971911-51.828412-48.593741-129.567961-80.308047a422.333818 422.333818 0 0 0-23.978111-8.930393c63.783699-36.368302 106.884332-105.013729 106.884333-183.542247 0-116.417453-94.709035-211.126488-211.126489-211.126488s-211.126488 94.709035-211.126488 211.126488c0 75.507718 39.85573 141.872195 99.621929 179.198312-21.674649 6.901177-42.954301 16.08535-63.74379 27.545356-51.856042 28.581965-95.199199 65.649186-128.829134 110.175285-26.90886 35.635615-47.619554 76.010161-61.546751 120.012328-22.181185 70.065775-20.00052 126.677121-19.482727 135.668913-0.078795 6.360871 2.281973 10.704806 4.51892 13.369495 2.947122 3.521197 8.710382 7.712659 19.397792 7.712659 12.479219 0 22.693862-10.090822 23.263844-22.965038l0.016372-0.467651 0.051166-0.00614c0-0.028653-0.011256-0.202615-0.033769-0.50142 0.051165-1.740644 0.022513-3.673669-0.191359-5.673209-0.276293-15.725146 0.760317-59.817364 17.555842-112.867604 28.085662-88.725764 84.646865-157.039639 168.115905-203.041346 45.562708-25.110911 92.974531-37.539988 141.809773-37.308721 3.508917 0.180102 7.04751 0.270153 10.602475 0.270153zM316.269154 275.202852c0-90.337471 73.496921-163.834392 163.834392-163.834392s163.834392 73.496921 163.834392 163.834392S570.439994 439.032128 480.102522 439.032128s-163.833369-73.496921-163.833368-163.829276z"  /><path d="M904.558677 615.807251H466.63786c-11.516288 0-20.87954 9.364275-20.87954 20.879539v300.556287c0 11.516288 9.364275 20.87954 20.87954 20.87954h437.916724c11.516288 0 20.87954-9.364275 20.87954-20.87954v-300.555263c0.005117-11.511171-9.364275-20.880563-20.875447-20.880563zM886.023532 918.707932H485.167888V655.217842H886.023532v263.49009z"  /><path d="M616.842837 787.759531L696.514387 869.127723l148.661832-120.789017-24.142864-29.714765-121.577986 98.782817-79.091336-80.775698-102.991675 79.671551 23.426548 30.2827z"  /></svg>