<?xml version="1.0" standalone="no"?><!DOCTYPE svg PUBLIC "-//W3C//DTD SVG 1.1//EN" "http://www.w3.org/Graphics/SVG/1.1/DTD/svg11.dtd"><svg class="icon" width="200px" height="200.00px" viewBox="0 0 1024 1024" version="1.1" xmlns="http://www.w3.org/2000/svg"><path d="M96 160h832c19.2 0 32 12.8 32 32s-12.8 32-32 32h-832c-19.2 0-32-12.8-32-32s12.8-32 32-32z m0 320h832c19.2 0 32 12.8 32 32s-12.8 32-32 32h-832c-19.2 0-32-12.8-32-32s12.8-32 32-32z m0 320h832c19.2 0 32 12.8 32 32s-12.8 32-32 32h-832c-19.2 0-32-12.8-32-32s12.8-32 32-32z" /></svg>